# xmcd
#
# Track frame offsets:
# 150
# 19922
# 47185
# 68830
# 107125
# 129905
# 152900
# 175322
# 198185
# 222125
#
# Disc length: 3424 seconds
#
#
# Revision: 0
# Processed by: cddbd v1.4PL0 Copyright (c) Steve Scherf et al.
# Submitted via: FreeRIP 2.00 
#
DISCID=890d5e0a
DTITLE=James Senese - Passpartù cd1
DYEAR=1900
DGENRE=Blues
TTITLE0=I pensieri tuoi
TTITLE1=Apache
TTITLE2=A musica e padrone
TTITLE3=Io ci credo e tu
TTITLE4=All dance
TTITLE5=Dentro al mio cuore
TTITLE6=Passpartù
TTITLE7=Go to miles
TTITLE8=O miracolo perdute
TTITLE9=Area 51
EXTD=serrit
EXTT0=
EXTT1=
EXTT2=
EXTT3=
EXTT4=
EXTT5=
EXTT6=
EXTT7=
EXTT8=
EXTT9=
PLAYORDER=
